{"title":"Ip.Man.2.2010.(Sub.PT).PSP.MOVIE.N9Ne","uid":5798947,"size":483984355,"categoryP":"video","categoryS":"handheld","magnet":"?xt=urn:btih:6442a5f2078033d5f3ef58f70ec61ce56067d403&amp;dn=Ip.Man.2.2010.%28Sub.PT%29.PSP.MOVIE.N9Ne&amp;tr=udp%3A%2F%2Ftracker.openbittorrent.com%3A80&amp;tr=udp%3A%2F%2Fopen.demonii.com%3A1337&amp;tr=udp%3A%2F%2Ftracker.coppersurfer.tk%3A6969&amp;tr=udp%3A%2F%2Fexodus.desync.com%3A6969","seeders":0,"leechers":0,"uploader":"fapoc007","files":10,"time":1283179118,"description":"Source : Ip.Man.2.2010.DVDRip.XviD.AC3-ViSiON\n\n\n\nLegendado pt\n\n\n\n\nFormat                           : MPEG-4\nFormat profile                   : Sony PSP\nCodec ID                         : MSNV\nFile size                        : 462 MiB\nDuration                         : 1h 45mn\nOverall bit rate                 : 614 Kbps\n\nVideo\nID                               : 1\nFormat                           : MPEG-4 Visual\nFormat profile                   : Simple@L1\nFormat settings, BVOP            : No\nFormat settings, QPel            : No\nFormat settings, GMC             : No warppoints\nFormat settings, Matrix          : Default (H.263)\nCodec ID                         : 20\nDuration                         : 1h 45mn\nBit rate mode                    : Constant\nBit rate                         : 563 Kbps\nNominal bit rate                 : 563 bps\nWidth                            : 368 pixels\nHeight                           : 208 pixels\nDisplay aspect ratio             : 16:9\nFrame rate mode                  : Constant\nFrame rate                       : 29.970 fps\nColor space                      : YUV\nChroma subsampling               : 4:2:0\nBit depth                        : 8 bits\nScan type                        : Progressive\nBits/(Pixel*Frame)               : 0.245\nStream size                      : 423 MiB (92%)\nLanguage                         : English\n\nAudio\nID                               : 2\nFormat                           : AAC\nFormat/Info                      : Advanced Audio Codec\nFormat version                   : Version 4\nFormat profile                   : LC\nFormat settings, SBR             : Yes\nFormat settings, PS              : Yes\nCodec ID                         : 40\nDuration                         : 1h 45mn\nBit rate mode                    : Constant\nBit rate                         : 48.0 Kbps\nChannel(s)                       : 2 channels\nChannel positions                : Front: L R\nSampling rate                    : 48.0 KHz\nStream size                      : 36.0 MiB (8%)\nLanguage                         : English\n\n\n\n\nmete os 2 ficheiro dentro da raiz do cartao da psp\n","torrent":{"xt":"urn:btih:6442a5f2078033d5f3ef58f70ec61ce56067d403","amp;dn":"Ip.Man.2.2010.%28Sub.PT%29.PSP.MOVIE.N9Ne","amp;tr":["udp%3A%2F%2Ftracker.openbittorrent.com%3A80","udp%3A%2F%2Fopen.demonii.com%3A1337","udp%3A%2F%2Ftracker.coppersurfer.tk%3A6969","udp%3A%2F%2Fexodus.desync.com%3A6969"],"infoHash":"6442a5f2078033d5f3ef58f70ec61ce56067d403","infoHashBuffer":{"type":"Buffer","data":[100,66,165,242,7,128,51,213,243,239,88,247,14,198,28,229,96,103,212,3]},"announce":[],"urlList":[]}}